<?xml version="1.0" encoding="UTF-8"?>
<svg width="116px" height="116px" viewBox="0 0 116 116" version="1.1" xmlns="http://www.w3.org/2000/svg" xmlns:xlink="http://www.w3.org/1999/xlink">
    <title>通讯连接</title>
    <defs>
        <rect id="path-1" x="0" y="0" width="116" height="116"></rect>
    </defs>
    <g id="v2" stroke="none" stroke-width="1" fill="none" fill-rule="evenodd">
        <g id="画板" transform="translate(-265.000000, -40.000000)">
            <g id="通讯连接" transform="translate(265.000000, 40.000000)">
                <mask id="mask-2" fill="white">
                    <use xlink:href="#path-1"></use>
                </mask>
                <g id="路径"></g>
                <path d="M97.1034483,92.7586207 L97.1034483,100 L86.9655172,100 L86.9655172,92.7586207 L97.1034483,92.7586207 Z M93.4827586,96.3793103 L90.5862069,96.3793103 L90.5862069,97.8275862 L93.4827586,97.8275862 L93.4827586,96.3793103 Z M76.9882732,28.3103448 C86.8839779,28.3103448 94.9310345,36.3437114 94.9310345,46.2225812 L94.9310345,46.2225812 L94.9310345,67.4350115 L90.0375541,67.4350115 L90.0375541,46.2225812 C90.0375541,39.0432121 84.1798769,33.1955002 76.9882732,33.1955002 L76.9882732,33.1955002 L73.6389578,33.1955002 C66.4401045,33.1955002 60.5896769,39.0432121 60.5896769,46.2225812 L60.5896769,46.2225812 L60.5896769,74.1222464 C60.5896769,84.0011161 52.5353707,92.0344828 42.639666,92.0344828 C32.7439613,92.0344828 24.6896552,84.0011161 24.6896552,74.1222464 L24.6896552,74.1222464 L24.6896552,61.1530635 L29.5831355,61.1530635 L29.5831355,74.1222464 C29.5831355,81.3016155 35.4408127,87.1493274 42.6324164,87.1493274 C49.8312697,87.1493274 55.6816973,81.3016155 55.6816973,74.1222464 L55.6816973,74.1222464 L55.6816973,46.2225812 C55.6816973,36.3437114 63.7287539,28.3103448 73.6389578,28.3103448 L73.6389578,28.3103448 Z M96.4990796,69.5862069 C98.434371,69.5862069 100,71.1430794 100,73.0675469 L100,73.0675469 L100,91.3103448 L84.7931034,91.3103448 L84.7931034,73.0675469 C84.7931034,71.1430794 86.3514842,69.5934146 88.2940239,69.5862069 L88.2940239,69.5862069 Z M37.7241379,31.2068966 L37.7241379,49.6217729 L33.2959219,54.0702293 L33.2959219,60.1724138 L20.4282161,60.1724138 L20.4282161,54.0702293 L16,49.6217729 L16,31.2068966 L37.7241379,31.2068966 Z M36.2758621,16 L36.2758621,29.7586207 L17.4482759,29.7586207 L17.4482759,16 L36.2758621,16 Z M24.6896552,21.0689655 L21.7931034,21.0689655 L21.7931034,23.9655172 L24.6896552,23.9655172 L24.6896552,21.0689655 Z M31.9310345,21.0689655 L29.0344828,21.0689655 L29.0344828,23.9655172 L31.9310345,23.9655172 L31.9310345,21.0689655 Z" id="分组-1" fill="#F2F2F2" mask="url(#mask-2)"></path>
            </g>
        </g>
    </g>
</svg>