<?xml version="1.0" encoding="UTF-8"?>
<svg width="48px" height="48px" viewBox="0 0 48 48" version="1.1" xmlns="http://www.w3.org/2000/svg" xmlns:xlink="http://www.w3.org/1999/xlink">
    <title>asset-icon</title>
    <defs>
        <path d="M10.7740701,1.73423965 C13.5730593,4.54508451 15.3042414,8.42825936 15.3042414,12.7174725 L15.3042414,12.7174725 C15.3042414,16.9650022 13.6058396,20.8137616 10.8545308,23.6179799 L10.8545308,23.6179799 L12.5813493,25.3521127 C15.7745533,22.1041274 17.7464789,17.6423027 17.7464789,12.7174725 L17.7464789,12.7174725 C17.7464789,7.75095894 15.7418794,3.25461184 12.5008886,0 L12.5008886,0 L10.7740701,1.73423965 Z M6.74464964,5.78062071 C8.51244347,7.55600928 9.60579362,10.0083776 9.60579362,12.7174725 L9.60579362,12.7174725 C9.60579362,15.3847771 8.54533018,17.8030506 6.82511033,19.571492 L6.82511033,19.571492 L8.26414347,21.0166204 C10.3526093,18.8782664 11.6410448,15.949105 11.6410448,12.7174725 L11.6410448,12.7174725 C11.6410448,9.44415656 10.3198291,6.48068664 8.18368277,4.33549226 L8.18368277,4.33549226 L6.74464964,5.78062071 Z M0,12.7174725 L3.78527124,16.5188839 L5.942597,14.3524203 L5.942597,11.0824177 L3.78527124,8.91606103 L0,12.7174725 Z" id="path-1"></path>
        <linearGradient x1="-0.0002831886%" y1="49.9999886%" x2="99.9997188%" y2="49.9999886%" id="linearGradient-3">
            <stop stop-color="#64AFE9" offset="0%"></stop>
            <stop stop-color="#3B74DD" offset="100%"></stop>
        </linearGradient>
        <path d="M5.32775384,0 C2.03886974,3.2400325 0,7.74018382 0,12.7161983 L0,12.7161983 C0,17.6507965 2.00459944,22.1182395 5.24559027,25.3521127 L5.24559027,25.3521127 L6.97240875,23.6290865 C4.17341959,20.8361382 2.44213108,16.9779402 2.44213108,12.7161983 L2.44213108,12.7161983 C2.44213108,8.41304013 4.20779631,4.52192146 7.05478517,1.72302613 L7.05478517,1.72302613 L5.3279667,0 L5.32775384,0 Z M6.10543412,12.7161983 C6.10543412,15.9685495 7.42664981,18.9130392 9.5627961,21.0443881 L9.5627961,21.0443881 L11.0017228,19.6085152 C9.23403541,17.8446038 8.14057883,15.4078359 8.14057883,12.7161983 L8.14057883,12.7161983 C8.14057883,9.98314437 9.2683057,7.51345589 11.0840992,5.74349123 L11.0840992,5.74349123 L9.64517253,4.30761842 C7.4609201,6.44512659 6.10543412,9.42243079 6.10543412,12.7161983 L6.10543412,12.7161983 Z M11.8038819,11.0916157 L11.8038819,14.3406748 L13.9611012,16.4932628 L17.7464789,12.7161983 L13.9611012,8.9391339 L11.8038819,11.0916157 Z" id="path-4"></path>
        <linearGradient x1="0%" y1="49.9998443%" x2="100.000002%" y2="49.9998443%" id="linearGradient-6">
            <stop stop-color="#E44B26" offset="0%"></stop>
            <stop stop-color="#EFC65D" offset="100%"></stop>
        </linearGradient>
    </defs>
    <g id="v2" stroke="none" stroke-width="1" fill="none" fill-rule="evenodd">
        <g id="画板" transform="translate(-287.000000, -309.000000)">
            <g id="asset-icon" transform="translate(287.000000, 309.000000)">
                <circle id="椭圆形" stroke="#EBEBEB" fill="#FFFFFF" cx="24" cy="24" r="23.5"></circle>
                <g id="编组-2" transform="translate(6.000000, 11.250000)">
                    <g id="编组" transform="translate(18.253521, 0.000000)">
                        <mask id="mask-2" fill="white">
                            <use xlink:href="#path-1"></use>
                        </mask>
                        <g id="Clip-4"></g>
                        <path d="M10.7740701,1.73423965 C13.5730593,4.54508451 15.3042414,8.42825936 15.3042414,12.7174725 L15.3042414,12.7174725 C15.3042414,16.9650022 13.6058396,20.8137616 10.8545308,23.6179799 L10.8545308,23.6179799 L12.5813493,25.3521127 C15.7745533,22.1041274 17.7464789,17.6423027 17.7464789,12.7174725 L17.7464789,12.7174725 C17.7464789,7.75095894 15.7418794,3.25461184 12.5008886,0 L12.5008886,0 L10.7740701,1.73423965 Z M6.74464964,5.78062071 C8.51244347,7.55600928 9.60579362,10.0083776 9.60579362,12.7174725 L9.60579362,12.7174725 C9.60579362,15.3847771 8.54533018,17.8030506 6.82511033,19.571492 L6.82511033,19.571492 L8.26414347,21.0166204 C10.3526093,18.8782664 11.6410448,15.949105 11.6410448,12.7174725 L11.6410448,12.7174725 C11.6410448,9.44415656 10.3198291,6.48068664 8.18368277,4.33549226 L8.18368277,4.33549226 L6.74464964,5.78062071 Z M0,12.7174725 L3.78527124,16.5188839 L5.942597,14.3524203 L5.942597,11.0824177 L3.78527124,8.91606103 L0,12.7174725 Z" id="Fill-3" fill="url(#linearGradient-3)" mask="url(#mask-2)"></path>
                    </g>
                    <g id="编组" transform="translate(0.000000, 0.000000)">
                        <mask id="mask-5" fill="white">
                            <use xlink:href="#path-4"></use>
                        </mask>
                        <g id="Clip-6"></g>
                        <path d="M5.32775384,0 C2.03886974,3.2400325 0,7.74018382 0,12.7161983 L0,12.7161983 C0,17.6507965 2.00459944,22.1182395 5.24559027,25.3521127 L5.24559027,25.3521127 L6.97240875,23.6290865 C4.17341959,20.8361382 2.44213108,16.9779402 2.44213108,12.7161983 L2.44213108,12.7161983 C2.44213108,8.41304013 4.20779631,4.52192146 7.05478517,1.72302613 L7.05478517,1.72302613 L5.3279667,0 L5.32775384,0 Z M6.10543412,12.7161983 C6.10543412,15.9685495 7.42664981,18.9130392 9.5627961,21.0443881 L9.5627961,21.0443881 L11.0017228,19.6085152 C9.23403541,17.8446038 8.14057883,15.4078359 8.14057883,12.7161983 L8.14057883,12.7161983 C8.14057883,9.98314437 9.2683057,7.51345589 11.0840992,5.74349123 L11.0840992,5.74349123 L9.64517253,4.30761842 C7.4609201,6.44512659 6.10543412,9.42243079 6.10543412,12.7161983 L6.10543412,12.7161983 Z M11.8038819,11.0916157 L11.8038819,14.3406748 L13.9611012,16.4932628 L17.7464789,12.7161983 L13.9611012,8.9391339 L11.8038819,11.0916157 Z" id="Fill-5" fill="url(#linearGradient-6)" mask="url(#mask-5)"></path>
                    </g>
                </g>
            </g>
        </g>
    </g>
</svg>