<?xml version="1.0" encoding="UTF-8"?>
<svg width="183px" height="44px" viewBox="0 0 183 44" version="1.1" xmlns="http://www.w3.org/2000/svg" xmlns:xlink="http://www.w3.org/1999/xlink">
    <title>编组</title>
    <defs>
        <path d="M18.6989973,3.00986927 C23.5567984,7.88824668 26.5613611,14.6277124 26.5613611,22.07188 L26.5613611,22.07188 C26.5613611,29.4437039 23.6136904,36.1234396 18.8386413,40.9903162 L18.8386413,40.9903162 L21.8356307,44 C27.3776136,38.3629411 30.8,30.6191964 30.8,22.07188 L30.8,22.07188 C30.8,13.4522198 27.3209063,5.64855966 21.6959867,0 L21.6959867,0 L18.6989973,3.00986927 Z M11.7057141,10.0325884 C14.7738185,13.1138739 16.6713885,17.3700954 16.6713885,22.07188 L16.6713885,22.07188 C16.6713885,26.7011353 14.8308953,30.8981834 11.8453582,33.9674116 L11.8453582,33.9674116 L14.3428801,36.4755123 C17.9675287,32.7642801 20.2036799,27.6805578 20.2036799,22.07188 L20.2036799,22.07188 C20.2036799,16.3908584 17.9106367,11.2475917 14.2032361,7.52448767 L14.2032361,7.52448767 L11.7057141,10.0325884 Z M0,22.07188 L6.56954853,28.6694407 L10.3137072,24.9094228 L10.3137072,19.2341516 L6.56954853,15.4743192 L0,22.07188 Z" id="path-1"></path>
        <linearGradient x1="-0.0002831886%" y1="49.9999886%" x2="99.9997188%" y2="49.9999886%" id="linearGradient-3">
            <stop stop-color="#64AFE9" offset="0%"></stop>
            <stop stop-color="#3B74DD" offset="100%"></stop>
        </linearGradient>
        <path d="M9.24661277,0 C3.5385717,5.6232564 0,13.433519 0,22.0696687 L0,22.0696687 C0,30.6339379 3.4790937,38.3874335 9.10401334,44 L9.10401334,44 L12.1010027,41.0095924 C7.24320155,36.1622754 4.23845416,29.4661584 4.23845416,22.0696687 L4.23845416,22.0696687 C4.23845416,14.6012985 7.30286427,7.84804591 12.2439716,2.99040757 L12.2439716,2.99040757 L9.2469822,0 L9.24661277,0 Z M10.5963201,22.0696687 C10.5963201,27.7143049 12.8893633,32.8246303 16.5967639,36.5237046 L16.5967639,36.5237046 L19.0941011,34.0316676 C16.0261815,30.9703012 14.1284268,26.7411553 14.1284268,22.0696687 L14.1284268,22.0696687 C14.1284268,17.3263017 16.0856595,13.0400201 19.23707,9.96814812 L19.23707,9.96814812 L16.7397328,7.47611109 C12.9488413,11.1858753 10.5963201,16.3531521 10.5963201,22.0696687 L10.5963201,22.0696687 Z M20.4862928,19.2501152 L20.4862928,24.8890378 L24.2302668,28.6249738 L30.8,22.0696687 L24.2302668,15.5143635 L20.4862928,19.2501152 Z" id="path-4"></path>
        <linearGradient x1="0%" y1="49.9998443%" x2="100.000002%" y2="49.9998443%" id="linearGradient-6">
            <stop stop-color="#E44B26" offset="0%"></stop>
            <stop stop-color="#EFC65D" offset="100%"></stop>
        </linearGradient>
        <polygon id="path-7" points="0 0 23.5486075 0 23.5486075 24.8812808 0 24.8812808"></polygon>
    </defs>
    <g id="v2" stroke="none" stroke-width="1" fill="none" fill-rule="evenodd">
        <g id="画板" transform="translate(-32.000000, -60.000000)">
            <g id="编组" transform="translate(32.000000, 60.000000)">
                <path d="M92.9152991,22 C93.7449166,22 94.16,22.4460205 94.16,23.3367636 C94.16,24.20566 93.7449166,24.64 92.9152991,24.64 L89.9972646,24.64 C89.380224,24.64 88.88,24.0490553 88.88,23.3201082 C88.88,22.5909447 89.380224,22 89.9972646,22 L92.9152991,22 Z" id="Fill-1" fill="#00337D"></path>
                <g transform="translate(31.680000, 0.000000)">
                    <mask id="mask-2" fill="white">
                        <use xlink:href="#path-1"></use>
                    </mask>
                    <g id="Clip-4"></g>
                    <path d="M18.6989973,3.00986927 C23.5567984,7.88824668 26.5613611,14.6277124 26.5613611,22.07188 L26.5613611,22.07188 C26.5613611,29.4437039 23.6136904,36.1234396 18.8386413,40.9903162 L18.8386413,40.9903162 L21.8356307,44 C27.3776136,38.3629411 30.8,30.6191964 30.8,22.07188 L30.8,22.07188 C30.8,13.4522198 27.3209063,5.64855966 21.6959867,0 L21.6959867,0 L18.6989973,3.00986927 Z M11.7057141,10.0325884 C14.7738185,13.1138739 16.6713885,17.3700954 16.6713885,22.07188 L16.6713885,22.07188 C16.6713885,26.7011353 14.8308953,30.8981834 11.8453582,33.9674116 L11.8453582,33.9674116 L14.3428801,36.4755123 C17.9675287,32.7642801 20.2036799,27.6805578 20.2036799,22.07188 L20.2036799,22.07188 C20.2036799,16.3908584 17.9106367,11.2475917 14.2032361,7.52448767 L14.2032361,7.52448767 L11.7057141,10.0325884 Z M0,22.07188 L6.56954853,28.6694407 L10.3137072,24.9094228 L10.3137072,19.2341516 L6.56954853,15.4743192 L0,22.07188 Z" id="Fill-3" fill="url(#linearGradient-3)" mask="url(#mask-2)"></path>
                </g>
                <g>
                    <mask id="mask-5" fill="white">
                        <use xlink:href="#path-4"></use>
                    </mask>
                    <g id="Clip-6"></g>
                    <path d="M9.24661277,0 C3.5385717,5.6232564 0,13.433519 0,22.0696687 L0,22.0696687 C0,30.6339379 3.4790937,38.3874335 9.10401334,44 L9.10401334,44 L12.1010027,41.0095924 C7.24320155,36.1622754 4.23845416,29.4661584 4.23845416,22.0696687 L4.23845416,22.0696687 C4.23845416,14.6012985 7.30286427,7.84804591 12.2439716,2.99040757 L12.2439716,2.99040757 L9.2469822,0 L9.24661277,0 Z M10.5963201,22.0696687 C10.5963201,27.7143049 12.8893633,32.8246303 16.5967639,36.5237046 L16.5967639,36.5237046 L19.0941011,34.0316676 C16.0261815,30.9703012 14.1284268,26.7411553 14.1284268,22.0696687 L14.1284268,22.0696687 C14.1284268,17.3263017 16.0856595,13.0400201 19.23707,9.96814812 L19.23707,9.96814812 L16.7397328,7.47611109 C12.9488413,11.1858753 10.5963201,16.3531521 10.5963201,22.0696687 L10.5963201,22.0696687 Z M20.4862928,19.2501152 L20.4862928,24.8890378 L24.2302668,28.6249738 L30.8,22.0696687 L24.2302668,15.5143635 L20.4862928,19.2501152 Z" id="Fill-5" fill="url(#linearGradient-6)" mask="url(#mask-5)"></path>
                </g>
                <g transform="translate(69.520000, 8.800000)">
                    <path d="M12.0042265,13.5315 L6.44403813,13.5315 C6.78620925,12.973692 6.95729481,12.5699489 6.95729481,12.3197103 C6.95729481,11.7187643 6.62785821,11.3744061 5.97692104,11.2810335 L12.0042265,11.2810335 L12.0042265,13.5315 Z M5.27504576,8.19394852 L5.27504576,7.06880866 L20.9289129,7.06880866 L20.9289129,8.19394852 C20.9477379,8.79022596 20.6533674,9.08827131 20.0450632,9.08827131 L6.15889553,9.08827131 C5.56941628,9.10769281 5.27504576,8.80964746 5.27504576,8.19394852 L5.27504576,8.19394852 Z M5.27504576,3.89488716 C5.23665763,3.31803122 5.53158182,3.02950988 6.15889553,3.02950988 L20.0450632,3.02950988 C20.6339887,3.01064861 20.9289129,3.29916995 20.9289129,3.89488716 L20.9289129,4.93356399 L5.27504576,4.93356399 L5.27504576,3.89488716 Z M24.6643732,23.2256303 L14.5419033,23.2256303 L14.5419033,20.4847709 L22.0126394,20.4847709 C22.8488731,20.4847709 23.2670822,20.1095998 23.2670822,19.3594443 C23.2670822,18.6092888 22.8488731,18.2343045 22.0126394,18.2343045 L14.5419033,18.2343045 L14.5419033,15.8107252 L17.454049,15.8107252 C18.0760105,15.8107252 18.5804084,15.3005373 18.5804084,14.671206 C18.5804084,14.0416879 18.0760105,13.5315 17.454049,13.5315 L14.5419033,13.5315 L14.5419033,11.2810335 L20.900491,11.2810335 C22.8202665,11.2810335 23.7135288,10.3389039 23.5808314,8.45352436 L23.5808314,3.66425683 C23.7135288,1.77925073 22.7824321,0.83674768 20.7864339,0.83674768 L5.30346774,0.83674768 C3.38313847,0.83674768 2.49006079,1.77925073 2.62312733,3.66425683 L2.62312733,8.45352436 C2.49006079,10.3389039 3.38313847,11.2810335 5.30346774,11.2810335 L5.32413827,11.2810335 C5.17464604,11.3120332 5.0428714,11.3676833 4.93287465,11.4541463 C4.76160453,11.5889763 4.60934392,11.7908479 4.47646193,12.0601345 C3.65905316,13.5413975 2.50907029,15.0417084 1.02632879,16.5608807 C0.342171116,17.2727534 -1.25055521e-14,17.8115133 -1.25055521e-14,18.1766002 C-1.25055521e-14,19.0421642 0.408427551,19.4748529 1.22602089,19.4748529 C1.64386091,19.4748529 2.16689918,19.1674703 2.79421289,18.5515846 C3.4215266,17.9362591 4.17230983,17.0225148 5.04674713,15.8107252 L12.0042265,15.8107252 L12.0042265,18.2343045 L4.70457601,18.2343045 C3.88716723,18.2343045 3.47855512,18.6092888 3.47855512,19.3594443 C3.47855512,20.1095998 3.88716723,20.4847709 4.70457601,20.4847709 L12.0042265,20.4847709 L12.0042265,23.2256303 L1.53958546,23.2256303 C0.627129155,23.2256303 0.170901,23.6006147 0.170901,24.3509569 C0.170901,25.1199737 0.627129155,25.5048555 1.53958546,25.5048555 L24.6643732,25.5048555 C25.5954699,25.5048555 26.0614797,25.1199737 26.0614797,24.3509569 C26.0614797,23.6006147 25.5954699,23.2256303 24.6643732,23.2256303 L24.6643732,23.2256303 Z" id="Fill-7" fill="#00337D"></path>
                    <path d="M32.9747942,14.1950617 C33.6971555,14.1950617 34.3813132,13.3584432 35.0278209,11.6850194 C35.9402772,9.1848746 36.3965054,7.50155332 36.3965054,6.63580255 C36.3965054,6.23205942 36.2776498,5.92897195 36.0399387,5.72710039 C35.8020431,5.52522882 35.4270206,5.42419966 34.9137639,5.42419966 C34.5332046,5.42419966 34.2244386,5.5396082 33.986912,5.77042527 C33.7490164,6.00124235 33.5544919,6.36670271 33.4024159,6.86680637 C32.8893437,8.77104723 32.480178,10.0982454 32.176395,10.8482141 C31.7011573,12.0794253 31.4636308,12.7814005 31.4636308,12.9545133 C31.4636308,13.7816078 31.9669213,14.1950617 32.9747942,14.1950617" id="Fill-9" fill="#00337D"></path>
                    <path d="M50.5108056,14.0219863 C51.0997311,14.0219863 51.5467314,13.7723079 51.8508835,13.2718308 C52.211695,12.6947881 52.7063113,11.6083045 53.333625,10.011633 C53.9987732,8.26164366 54.3317164,7.21306933 54.3317164,6.86684372 C54.3317164,5.96281018 53.7898531,5.51070004 52.7063113,5.51070004 C52.002775,5.51070004 51.5181248,5.92452742 51.2521763,6.75124844 C50.7197256,8.42467222 50.1872748,9.8196589 49.6553778,10.9349013 C49.2748185,11.723713 49.0850926,12.310093 49.0850926,12.6947881 C49.0850926,13.0798567 49.2085621,13.3971368 49.4556857,13.6468151 C49.7026247,13.8970537 50.0545774,14.0219863 50.5108056,14.0219863" id="Fill-11" fill="#00337D"></path>
                    <path d="M53.0154095,22.157261 C48.166878,19.411733 45.0847542,14.9727995 43.7814034,8.82869547 C43.9334794,5.61667795 44.038124,3.15481591 44.0951525,1.44254913 C44.1331715,0.480998065 43.6575647,0.000129161873 42.6694395,0.000129161873 C42.2132114,0.000129161873 41.8712248,0.129917079 41.6429262,0.389492914 C41.4149966,0.649255494 41.2909735,1.03880599 41.2723331,1.55795766 L41.1868826,5.07791803 C41.11066,7.79001864 40.8729489,10.160749 40.4737492,12.1899224 C40.0747342,14.2194693 39.4852549,15.9166097 38.7060497,17.2822774 C37.1092512,20.1095998 34.6188213,22.0909664 31.2354982,23.2256303 C30.2468193,23.5526212 29.7527567,24.0812968 29.7527567,24.8124043 C29.7527567,25.312508 29.8668138,25.6874923 30.0949278,25.9377309 C30.3230419,26.1874093 30.6554314,26.3127153 31.0928346,26.3127153 C32.1571824,26.3127153 33.6685305,25.6680708 35.6265097,24.3797157 C37.5841197,23.0717523 39.1716903,21.5139238 40.3884833,19.7058567 C41.6429262,17.8402721 42.4885724,15.9072725 42.9261601,13.9064843 C43.9526735,17.7149661 46.2622362,21.0140068 49.8548484,23.802673 C50.4576159,24.2572108 51.0064923,24.6458276 51.5047997,24.9726317 C51.4918807,24.863199 51.4832064,24.7522724 51.4832064,24.6394783 C51.4832064,23.5485128 52.1086745,22.6076904 53.0154095,22.157261" id="Fill-13" fill="#00337D"></path>
                    <path d="M54.217567,22.8787137 C53.2565719,22.8787137 52.4775512,23.6669653 52.4775512,24.6393475 C52.4775512,25.6117298 53.2565719,26.3999813 54.217567,26.3999813 C55.1785622,26.3999813 55.9575828,25.6117298 55.9575828,24.6393475 C55.9575828,23.6669653 55.1785622,22.8787137 54.217567,22.8787137" id="Fill-15" fill="#00337D"></path>
                    <g transform="translate(89.091393, 1.518719)">
                        <mask id="mask-8" fill="white">
                            <use xlink:href="#path-7"></use>
                        </mask>
                        <g id="Clip-18"></g>
                        <path d="M23.5345072,21.5611378 L23.5345072,2.92844822 C23.5911666,1.93645769 23.383354,1.20180206 22.9121766,0.724481311 C22.4406301,0.247720803 21.6959373,0.00906043104 20.6775445,0.00906043104 L2.85696272,0.00906043104 C1.87621983,-0.0482703469 1.15496594,0.166486639 0.693016473,0.652957898 C0.230697894,1.1396159 0,1.89798818 0,2.92844822 L0,23.3643495 C0,24.3755748 0.424299566,24.8812808 1.2728987,24.8812808 C2.12149783,24.8812808 2.5457974,24.3755748 2.5457974,23.3643495 L2.5457974,3.6438691 C2.5457974,2.88101494 2.92285004,2.49912099 3.67732443,2.49912099 L19.8571828,2.49912099 C20.6112881,2.49912099 20.9887098,2.88101494 20.9887098,3.6438691 L20.9887098,21.0173358 C20.9887098,21.7615154 20.6395255,22.1336986 19.9420796,22.1336986 L18.1035097,22.1336986 C17.1037573,22.1336986 16.6043425,22.5723631 16.6043425,23.4502523 C16.6043425,24.346816 17.1037573,24.795378 18.1035097,24.795378 L20.3663792,24.795378 C22.6294332,24.9100396 23.6852914,23.8317727 23.5345072,21.5611378" id="Fill-17" fill="#00337D" mask="url(#mask-8)"></path>
                    </g>
                    <path d="M99.9476109,17.2791774 C99.7741261,16.9213736 99.5796016,16.538546 99.3594236,16.1247186 L98.8219898,15.0085425 L98.1714217,13.634658 C98.5108244,12.3373391 98.8406301,10.9348826 99.1613925,9.42728855 C99.5194356,7.76712368 99.6988263,6.63227307 99.6988263,6.02124276 C99.6988263,5.23915384 99.3214046,4.84792264 98.5674838,4.84792264 C98.0769278,4.84792264 97.7471221,5.0481135 97.5773285,5.44886871 C97.4077194,5.90676795 97.2565661,6.70827837 97.1247915,7.85302648 C96.9926477,9.09357487 96.8230386,10.0762281 96.6155951,10.801173 L95.993449,9.71356895 L94.6356535,7.53817406 C94.2582317,6.83265068 93.8435292,6.479142 93.3909922,6.479142 C92.9949301,6.479142 92.7024051,6.5650448 92.5141557,6.73685039 C92.3253525,6.90846923 92.2312278,7.17607511 92.2312278,7.53817406 C92.2312278,7.74844916 92.6365178,8.52138756 93.4476516,9.85661578 C94.1264571,10.9442199 94.8803778,12.2992431 95.7105211,13.9209384 C94.9936966,16.0772853 94.0225508,18.1953494 92.796899,20.274944 C92.4194772,20.9238836 92.2312278,21.3913069 92.2312278,21.6774005 C92.2312278,22.5933857 92.6457457,23.051285 93.475889,23.051285 C94.2966199,23.051285 95.5147047,20.967582 97.1292209,16.8026037 C97.3752371,17.3413636 97.5780667,17.8207385 97.7397398,18.2431562 C98.1369093,17.6420234 98.8133155,17.2461235 99.5816318,17.2461235 C99.7065778,17.2461235 99.8283862,17.2591957 99.9476109,17.2791774" id="Fill-19" fill="#00337D"></path>
                    <path d="M99.581558,18.1798122 C98.8680555,18.1798122 98.2896498,18.7650717 98.2896498,19.4870287 C98.2896498,20.2089856 98.8680555,20.7942451 99.581558,20.7942451 C100.29506,20.7942451 100.873466,20.2089856 100.873466,19.4870287 C100.873466,18.7650717 100.29506,18.1798122 99.581558,18.1798122" id="Fill-21" fill="#00337D"></path>
                    <path d="M107.13828,20.8473928 C107.402198,21.1721427 107.703951,21.333864 108.043538,21.333864 C108.873128,21.333864 109.288015,20.8951995 109.288015,20.0173103 C109.288015,19.464171 108.769222,18.2428574 107.732373,16.3539297 L106.459474,13.9781572 C106.798877,12.9290226 107.166517,11.5166686 107.562579,9.74221567 C108.033757,7.62415155 108.269807,6.37463939 108.269807,5.99274544 C108.269807,5.21046978 107.864148,4.81905183 107.053567,4.81905183 C106.374577,4.81905183 105.968918,5.29637257 105.837144,6.25026708 C105.530592,8.38383105 105.206877,10.0454899 104.866182,11.237858 C102.9429,8.08671942 101.700823,6.50778872 101.141611,6.50778872 C100.349487,6.50778872 99.9534245,6.8704479 99.9534245,7.59557954 C99.9534245,7.84376391 100.405961,8.65442485 101.31122,10.0283093 C102.235119,11.4406633 103.093315,12.8617943 103.885439,14.2930096 C103.252035,15.9761441 102.582089,17.4540457 101.875599,18.7287684 C101.570894,19.2787331 101.715034,19.9704373 102.212603,20.3500903 C102.83641,20.8262906 103.734655,20.6128408 104.080702,19.9037693 C104.477133,19.0914276 104.892759,18.1468704 105.327947,17.0693505 L106.176546,18.9011342 C106.610258,19.9315943 106.930652,20.5803471 107.13828,20.8473928" id="Fill-23" fill="#00337D"></path>
                    <path d="M74.0127936,5.36304061 L75.427064,5.36304061 C75.0686517,6.4891142 74.7200211,7.47158072 74.3804338,8.31118716 C74.3049494,8.482806 74.1728057,8.73099038 73.9845562,9.05518006 C73.7202687,9.5325008 73.550475,9.89515999 73.4753598,10.1427841 C73.343216,10.5820089 73.3480146,11.0064807 73.4893862,11.4165732 C73.6309425,11.8270391 73.9088873,12.0797054 74.3239589,12.1751322 C74.5502274,12.2322762 74.9272801,12.241987 75.4553014,12.2035175 C75.7568697,12.1848429 75.9737257,12.1751322 76.1058695,12.1751322 L78.3689235,12.1751322 L78.3689235,15.4091857 L74.041031,15.4091857 C73.2489067,15.4091857 72.8530292,15.8099409 72.8530292,16.6114513 C72.8530292,17.4320097 73.2489067,17.8421022 74.041031,17.8421022 L78.3689235,17.8421022 L78.3689235,20.9618676 C78.3689235,21.820522 78.7932231,22.2498493 79.6418222,22.2498493 C80.4904214,22.2498493 80.9147209,21.820522 80.9147209,20.9618676 L80.9147209,17.8421022 L84.0261896,17.8421022 C84.8183138,17.8421022 85.2141914,17.4320097 85.2141914,16.6114513 C85.2141914,15.8099409 84.8183138,15.4091857 84.0261896,15.4091857 L80.9147209,15.4091857 L80.9147209,12.1751322 L83.3473841,12.1751322 C84.1203143,12.1751322 84.5071485,11.7840877 84.5071485,11.0014386 C84.5071485,10.2193497 84.1203143,9.82811846 83.3473841,9.82811846 L80.9147209,9.82811846 L80.9147209,7.88167319 C80.9147209,7.02301874 80.4904214,6.59369151 79.6418222,6.59369151 C78.7932231,6.59369151 78.3689235,7.02301874 78.3689235,7.88167319 L78.3689235,9.82811846 L76.1625289,9.82811846 C76.8599747,8.2824284 77.463665,6.79406912 77.9728614,5.36304061 L81.4239173,5.36304061 L83.7716836,5.36304061 C84.5822638,5.36304061 84.9879229,4.94342413 84.9879229,4.10363095 C84.9879229,3.28344601 84.5822638,2.87298005 83.7716836,2.87298005 L78.8214605,2.87298005 C78.8779354,2.72040921 78.9722447,2.4055568 79.1043884,1.9284228 C79.1228442,1.8524175 79.1420383,1.78518923 79.1610478,1.72804519 C79.3873163,0.774150688 79.047729,0.211113894 78.142655,0.0393083059 C77.2373965,-0.132497283 76.6999627,0.258920667 76.5303536,1.21281517 C76.4546847,1.59470912 76.3225409,2.14803516 76.1342914,2.87298005 L74.0127936,2.87298005 C73.2016598,2.87298005 72.7963698,3.28344601 72.7963698,4.10363095 C72.7963698,4.94342413 73.2016598,5.36304061 74.0127936,5.36304061" id="Fill-25" fill="#00337D"></path>
                    <path d="M85.1859725,23.1800645 C84.959704,22.9610124 84.5354044,22.8795914 83.9130738,22.9367355 C82.0080628,23.070445 80.4147709,23.1371131 79.1326443,23.1371131 C76.8317558,23.1371131 75.0969076,22.7651166 73.9279152,22.020937 C73.7016468,21.8876009 73.3949108,21.6872233 73.0086303,21.4198042 C72.621796,21.1529453 72.3438512,20.9811397 72.1742421,20.9045742 L72.1742421,10.4576739 C72.1742421,9.77063829 71.8346548,9.42721386 71.1558494,9.42721386 L69.9960849,9.42721386 L69.0910109,9.42721386 C68.2608676,9.42721386 67.8463496,9.86643858 67.8463496,10.7439543 C67.8463496,11.5645127 68.2422272,11.9746052 69.0343515,11.9746052 L69.0910109,11.9746052 C69.5055289,11.9746052 69.713157,12.1848803 69.713157,12.60431 L69.713157,21.1049518 C69.0910109,21.4297017 68.4304767,21.9350342 67.7332154,22.6218831 C67.0728657,23.2900574 66.9693285,23.9574848 67.4220501,24.6254724 C67.7799087,25.1407024 68.1949803,25.34108 68.6665268,25.2264184 C69.0625889,25.1121304 69.4586511,24.7685192 69.8547132,24.1961451 C70.4388403,23.4519655 70.9013434,23.0797823 71.2405616,23.0797823 C71.4670147,23.0797823 71.9664295,23.3567254 72.7397288,23.9100515 C73.0793161,24.1390011 73.333822,24.3106199 73.5036157,24.4250948 C74.9745454,25.3218452 76.8415374,25.7704072 79.1044069,25.7704072 C80.6884709,25.7704072 82.3007723,25.7224137 83.9413112,25.6271736 C84.3748387,25.5887041 84.6954165,25.4841268 84.9030446,25.3123212 C85.1103036,25.1407024 85.2518598,24.8351872 85.3275287,24.3965227 C85.4591188,23.8049139 85.412241,23.3996768 85.1859725,23.1800645" id="Fill-27" fill="#00337D"></path>
                    <path d="M67.8463127,20.7901367 C67.5443753,19.9886263 67.0161694,19.8455794 66.2622487,20.3608095 L65.0740623,21.1623199 L65.0740623,16.2679148 L66.6865483,16.2679148 C67.4594785,16.2679148 67.8463127,15.8673463 67.8463127,15.0658359 C67.8463127,14.2835603 67.4594785,13.8923291 66.6865483,13.8923291 L65.0740623,13.8923291 L65.0740623,10.4577112 L65.922846,10.4577112 C66.6957762,10.4577112 67.0824259,10.056956 67.0824259,9.25544562 C67.0824259,8.4733567 66.6957762,8.08212549 65.922846,8.08212549 L64.1689883,8.08212549 L61.4533973,8.08212549 C61.9247592,7.35718061 62.3963057,6.45071938 62.8678522,5.36311531 L66.5451766,5.36311531 C67.3371163,5.36311531 67.7331785,4.95283609 67.7331785,4.13227766 C67.7331785,3.33076724 67.3371163,2.93019878 66.5451766,2.93019878 L63.8295856,2.93019878 C63.9803697,2.54867832 64.1125135,2.14792311 64.2256477,1.72793315 C64.4329067,0.965078985 64.1689883,0.478420981 63.4335234,0.268332625 C62.6415837,0.0205217383 62.1323873,0.335374154 61.9061188,1.21288987 C61.3779129,3.06390834 60.7179324,4.60941166 59.9259926,5.84958657 C59.5299305,6.44138212 59.5583525,7.18537502 60.0108895,8.08212549 C60.1806831,8.3874539 60.3597047,8.57849425 60.5483233,8.65449955 C60.8122417,8.75029984 61.0008603,8.72172782 61.1139945,8.5687835 L61.1422319,9.74210362 C61.1422319,10.2194244 61.3779129,10.4577112 61.8494594,10.4577112 L62.6415837,10.4577112 L62.6415837,13.8923291 L61.1139945,13.8923291 C60.3406952,13.8923291 59.9542301,14.2835603 59.9542301,15.0658359 C59.9542301,15.8673463 60.3406952,16.2679148 61.1139945,16.2679148 L62.6415837,16.2679148 L62.6415837,21.3625107 C62.6415837,22.1832559 62.3868932,22.9274356 61.8778814,23.5950497 C61.7267281,23.7476205 61.6558577,23.9573354 61.6656393,24.2247545 C61.6750518,24.4918001 61.773975,24.7399845 61.9625936,24.9689341 C62.3019964,25.4649294 62.5566869,25.8750219 62.726296,26.199585 L62.726296,26.0565382 L62.726296,26.0279662 C63.0092239,25.5887415 64.272341,24.5489442 66.5167546,22.9082008 C66.8561574,22.6411552 67.1767352,22.3169655 67.478488,21.9350715 C67.8180753,21.458311 67.9404375,21.0764171 67.8463127,20.7901367" id="Fill-29" fill="#00337D"></path>
                    <path d="M70.2691943,2.98323442 C70.8798978,2.98323442 71.3765442,3.48576576 71.3765442,4.10370565 C71.3765442,4.72145878 70.8798978,5.22417688 70.2691943,5.22417688 C69.6584908,5.22417688 69.1618444,4.72145878 69.1618444,4.10370565 C69.1618444,3.48576576 69.6584908,2.98323442 70.2691943,2.98323442 M70.2691943,6.34464811 C71.4922622,6.34464811 72.4838941,5.34126612 72.4838941,4.10370565 C72.4838941,2.86614517 71.4922622,1.86276319 70.2691943,1.86276319 C69.0461263,1.86276319 68.0544945,2.86614517 68.0544945,4.10370565 C68.0544945,5.34126612 69.0461263,6.34464811 70.2691943,6.34464811" id="Fill-31" fill="#00337D"></path>
                </g>
            </g>
        </g>
    </g>
</svg>